<svg width="100%" viewBox="0 0 680 416" xmlns="http://www.w3.org/2000/svg" role="img" style="">
<title style="fill:rgb(0, 0, 0);stroke:none;color:rgb(11, 11, 11);stroke-width:1px;stroke-linecap:butt;stroke-linejoin:miter;opacity:1;font-family:&quot;Anthropic Sans&quot;, -apple-system, BlinkMacSystemFont, &quot;Segoe UI&quot;, sans-serif;font-size:16px;font-weight:400;text-anchor:start;dominant-baseline:auto">Hand-drawn doodle of SNI routing</title>
<desc style="fill:rgb(0, 0, 0);stroke:none;color:rgb(11, 11, 11);stroke-width:1px;stroke-linecap:butt;stroke-linejoin:miter;opacity:1;font-family:&quot;Anthropic Sans&quot;, -apple-system, BlinkMacSystemFont, &quot;Segoe UI&quot;, sans-serif;font-size:16px;font-weight:400;text-anchor:start;dominant-baseline:auto">A sketchy doodle showing a browser sending a ClientHello with the plaintext SNI hostname to a TLS router hub, which fans out to three certificates on the same IP, checking off the matched one and crossing out the others, then completing the handshake.</desc>

<g fill="none" stroke="var(--text-primary)" stroke-width="1.5" stroke-linecap="round" stroke-linejoin="round" style="fill:none;stroke:rgb(11, 11, 11);color:rgb(11, 11, 11);stroke-width:1.5px;stroke-linecap:round;stroke-linejoin:round;opacity:1;font-family:&quot;Anthropic Sans&quot;, -apple-system, BlinkMacSystemFont, &quot;Segoe UI&quot;, sans-serif;font-size:16px;font-weight:400;text-anchor:start;dominant-baseline:auto">


<path d="M44,43 Q78,36 123,42 Q168,38 187,44 Q193,57 188,71 Q192,85 186,93 Q130,100 85,94 Q43,98 42,74 Q37,57 44,43 Z" style="fill:none;stroke:rgb(11, 11, 11);color:rgb(11, 11, 11);stroke-width:1.5px;stroke-linecap:round;stroke-linejoin:round;opacity:1;font-family:&quot;Anthropic Sans&quot;, -apple-system, BlinkMacSystemFont, &quot;Segoe UI&quot;, sans-serif;font-size:16px;font-weight:400;text-anchor:start;dominant-baseline:auto"/>
<path d="M44,43 Q78,36 123,42 Q168,38 187,44 Q193,57 188,71 Q192,85 186,93 Q130,100 85,94 Q43,98 42,74 Q37,57 44,43 Z" transform="translate(3,2)" opacity="0.35" style="fill:none;stroke:rgb(11, 11, 11);color:rgb(11, 11, 11);stroke-width:1.5px;stroke-linecap:round;stroke-linejoin:round;opacity:0.35;font-family:&quot;Anthropic Sans&quot;, -apple-system, BlinkMacSystemFont, &quot;Segoe UI&quot;, sans-serif;font-size:16px;font-weight:400;text-anchor:start;dominant-baseline:auto"/>


<path d="M234,43 Q275,36 329,42 Q383,38 407,44 Q413,57 408,71 Q412,85 406,93 Q338,100 284,94 Q233,98 232,74 Q227,71 234,43 Z" style="fill:none;stroke:rgb(11, 11, 11);color:rgb(11, 11, 11);stroke-width:1.5px;stroke-linecap:round;stroke-linejoin:round;opacity:1;font-family:&quot;Anthropic Sans&quot;, -apple-system, BlinkMacSystemFont, &quot;Segoe UI&quot;, sans-serif;font-size:16px;font-weight:400;text-anchor:start;dominant-baseline:auto"/>
<path d="M234,43 Q275,36 329,42 Q383,38 407,44 Q413,57 408,71 Q412,85 406,93 Q338,100 284,94 Q233,98 232,74 Q227,71 234,43 Z" transform="translate(3,2)" opacity="0.35" style="fill:none;stroke:rgb(11, 11, 11);color:rgb(11, 11, 11);stroke-width:1.5px;stroke-linecap:round;stroke-linejoin:round;opacity:0.35;font-family:&quot;Anthropic Sans&quot;, -apple-system, BlinkMacSystemFont, &quot;Segoe UI&quot;, sans-serif;font-size:16px;font-weight:400;text-anchor:start;dominant-baseline:auto"/>


<path d="M520,30 Q560,32 558,68 Q560,104 520,106 Q480,104 482,68 Q480,32 520,30 Z" style="fill:none;stroke:rgb(11, 11, 11);color:rgb(11, 11, 11);stroke-width:1.5px;stroke-linecap:round;stroke-linejoin:round;opacity:1;font-family:&quot;Anthropic Sans&quot;, -apple-system, BlinkMacSystemFont, &quot;Segoe UI&quot;, sans-serif;font-size:16px;font-weight:400;text-anchor:start;dominant-baseline:auto"/>
<path d="M520,30 Q560,32 558,68 Q560,104 520,106 Q480,104 482,68 Q480,32 520,30 Z" transform="translate(2,2)" opacity="0.35" style="fill:none;stroke:rgb(11, 11, 11);color:rgb(11, 11, 11);stroke-width:1.5px;stroke-linecap:round;stroke-linejoin:round;opacity:0.35;font-family:&quot;Anthropic Sans&quot;, -apple-system, BlinkMacSystemFont, &quot;Segoe UI&quot;, sans-serif;font-size:16px;font-weight:400;text-anchor:start;dominant-baseline:auto"/>


<path d="M94,193 Q128,186 173,192 Q218,188 237,194 Q243,207 238,221 Q242,235 236,243 Q180,250 135,244 Q93,248 92,224 Q87,207 94,193 Z" style="fill:none;stroke:rgb(11, 11, 11);color:rgb(11, 11, 11);stroke-width:1.5px;stroke-linecap:round;stroke-linejoin:round;opacity:1;font-family:&quot;Anthropic Sans&quot;, -apple-system, BlinkMacSystemFont, &quot;Segoe UI&quot;, sans-serif;font-size:16px;font-weight:400;text-anchor:start;dominant-baseline:auto"/>
<path d="M94,193 Q128,186 173,192 Q218,188 237,194 Q243,207 238,221 Q242,235 236,243 Q180,250 135,244 Q93,248 92,224 Q87,207 94,193 Z" transform="translate(3,2)" opacity="0.35" style="fill:none;stroke:rgb(11, 11, 11);color:rgb(11, 11, 11);stroke-width:1.5px;stroke-linecap:round;stroke-linejoin:round;opacity:0.35;font-family:&quot;Anthropic Sans&quot;, -apple-system, BlinkMacSystemFont, &quot;Segoe UI&quot;, sans-serif;font-size:16px;font-weight:400;text-anchor:start;dominant-baseline:auto"/>


<path d="M264,193 Q298,186 343,192 Q388,188 407,194 Q413,207 408,221 Q412,235 406,243 Q350,250 305,244 Q263,248 262,224 Q257,207 264,193 Z" style="fill:none;stroke:rgb(11, 11, 11);color:rgb(11, 11, 11);stroke-width:1.5px;stroke-linecap:round;stroke-linejoin:round;opacity:1;font-family:&quot;Anthropic Sans&quot;, -apple-system, BlinkMacSystemFont, &quot;Segoe UI&quot;, sans-serif;font-size:16px;font-weight:400;text-anchor:start;dominant-baseline:auto"/>
<path d="M264,193 Q298,186 343,192 Q388,188 407,194 Q413,207 408,221 Q412,235 406,243 Q350,250 305,244 Q263,248 262,224 Q257,207 264,193 Z" transform="translate(3,2)" opacity="0.35" style="fill:none;stroke:rgb(11, 11, 11);color:rgb(11, 11, 11);stroke-width:1.5px;stroke-linecap:round;stroke-linejoin:round;opacity:0.35;font-family:&quot;Anthropic Sans&quot;, -apple-system, BlinkMacSystemFont, &quot;Segoe UI&quot;, sans-serif;font-size:16px;font-weight:400;text-anchor:start;dominant-baseline:auto"/>


<path d="M434,193 Q468,186 513,192 Q558,188 577,194 Q583,207 578,221 Q582,235 576,243 Q520,250 475,244 Q433,248 432,224 Q427,207 434,193 Z" style="fill:none;stroke:rgb(11, 11, 11);color:rgb(11, 11, 11);stroke-width:1.5px;stroke-linecap:round;stroke-linejoin:round;opacity:1;font-family:&quot;Anthropic Sans&quot;, -apple-system, BlinkMacSystemFont, &quot;Segoe UI&quot;, sans-serif;font-size:16px;font-weight:400;text-anchor:start;dominant-baseline:auto"/>
<path d="M434,193 Q468,186 513,192 Q558,188 577,194 Q583,207 578,221 Q582,235 576,243 Q520,250 475,244 Q433,248 432,224 Q427,207 434,193 Z" transform="translate(3,2)" opacity="0.35" style="fill:none;stroke:rgb(11, 11, 11);color:rgb(11, 11, 11);stroke-width:1.5px;stroke-linecap:round;stroke-linejoin:round;opacity:0.35;font-family:&quot;Anthropic Sans&quot;, -apple-system, BlinkMacSystemFont, &quot;Segoe UI&quot;, sans-serif;font-size:16px;font-weight:400;text-anchor:start;dominant-baseline:auto"/>


<path d="M69,323 Q115,316 175,322 Q235,318 262,324 Q268,337 263,351 Q267,365 261,373 Q185,380 125,374 Q68,378 67,354 Q62,351 69,323 Z" style="fill:none;stroke:rgb(11, 11, 11);color:rgb(11, 11, 11);stroke-width:1.5px;stroke-linecap:round;stroke-linejoin:round;opacity:1;font-family:&quot;Anthropic Sans&quot;, -apple-system, BlinkMacSystemFont, &quot;Segoe UI&quot;, sans-serif;font-size:16px;font-weight:400;text-anchor:start;dominant-baseline:auto"/>
<path d="M69,323 Q115,316 175,322 Q235,318 262,324 Q268,337 263,351 Q267,365 261,373 Q185,380 125,374 Q68,378 67,354 Q62,351 69,323 Z" transform="translate(3,2)" opacity="0.35" style="fill:none;stroke:rgb(11, 11, 11);color:rgb(11, 11, 11);stroke-width:1.5px;stroke-linecap:round;stroke-linejoin:round;opacity:0.35;font-family:&quot;Anthropic Sans&quot;, -apple-system, BlinkMacSystemFont, &quot;Segoe UI&quot;, sans-serif;font-size:16px;font-weight:400;text-anchor:start;dominant-baseline:auto"/>


<path d="M190,68 Q210,60 228,68" style="fill:none;stroke:rgb(11, 11, 11);color:rgb(11, 11, 11);stroke-width:1.5px;stroke-linecap:round;stroke-linejoin:round;opacity:1;font-family:&quot;Anthropic Sans&quot;, -apple-system, BlinkMacSystemFont, &quot;Segoe UI&quot;, sans-serif;font-size:16px;font-weight:400;text-anchor:start;dominant-baseline:auto"/>
<path d="M222,62 L232,68 L222,74" style="fill:none;stroke:rgb(11, 11, 11);color:rgb(11, 11, 11);stroke-width:1.5px;stroke-linecap:round;stroke-linejoin:round;opacity:1;font-family:&quot;Anthropic Sans&quot;, -apple-system, BlinkMacSystemFont, &quot;Segoe UI&quot;, sans-serif;font-size:16px;font-weight:400;text-anchor:start;dominant-baseline:auto"/>

<path d="M410,68 Q446,58 480,68" style="fill:none;stroke:rgb(11, 11, 11);color:rgb(11, 11, 11);stroke-width:1.5px;stroke-linecap:round;stroke-linejoin:round;opacity:1;font-family:&quot;Anthropic Sans&quot;, -apple-system, BlinkMacSystemFont, &quot;Segoe UI&quot;, sans-serif;font-size:16px;font-weight:400;text-anchor:start;dominant-baseline:auto"/>
<path d="M474,62 L484,68 L474,74" style="fill:none;stroke:rgb(11, 11, 11);color:rgb(11, 11, 11);stroke-width:1.5px;stroke-linecap:round;stroke-linejoin:round;opacity:1;font-family:&quot;Anthropic Sans&quot;, -apple-system, BlinkMacSystemFont, &quot;Segoe UI&quot;, sans-serif;font-size:16px;font-weight:400;text-anchor:start;dominant-baseline:auto"/>

<path d="M520,106 Q350,140 165,188" style="fill:none;stroke:rgb(11, 11, 11);color:rgb(11, 11, 11);stroke-width:1.5px;stroke-linecap:round;stroke-linejoin:round;opacity:1;font-family:&quot;Anthropic Sans&quot;, -apple-system, BlinkMacSystemFont, &quot;Segoe UI&quot;, sans-serif;font-size:16px;font-weight:400;text-anchor:start;dominant-baseline:auto"/>
<path d="M159,180 L171,180 L165,188 Z" fill="var(--text-primary)" style="fill:rgb(11, 11, 11);stroke:rgb(11, 11, 11);color:rgb(11, 11, 11);stroke-width:1.5px;stroke-linecap:round;stroke-linejoin:round;opacity:1;font-family:&quot;Anthropic Sans&quot;, -apple-system, BlinkMacSystemFont, &quot;Segoe UI&quot;, sans-serif;font-size:16px;font-weight:400;text-anchor:start;dominant-baseline:auto"/>

<path d="M520,106 Q430,150 335,188" style="fill:none;stroke:rgb(11, 11, 11);color:rgb(11, 11, 11);stroke-width:1.5px;stroke-linecap:round;stroke-linejoin:round;opacity:1;font-family:&quot;Anthropic Sans&quot;, -apple-system, BlinkMacSystemFont, &quot;Segoe UI&quot;, sans-serif;font-size:16px;font-weight:400;text-anchor:start;dominant-baseline:auto"/>
<path d="M329,180 L341,180 L335,188 Z" fill="var(--text-primary)" style="fill:rgb(11, 11, 11);stroke:rgb(11, 11, 11);color:rgb(11, 11, 11);stroke-width:1.5px;stroke-linecap:round;stroke-linejoin:round;opacity:1;font-family:&quot;Anthropic Sans&quot;, -apple-system, BlinkMacSystemFont, &quot;Segoe UI&quot;, sans-serif;font-size:16px;font-weight:400;text-anchor:start;dominant-baseline:auto"/>

<path d="M520,106 Q515,150 505,188" style="fill:none;stroke:rgb(11, 11, 11);color:rgb(11, 11, 11);stroke-width:1.5px;stroke-linecap:round;stroke-linejoin:round;opacity:1;font-family:&quot;Anthropic Sans&quot;, -apple-system, BlinkMacSystemFont, &quot;Segoe UI&quot;, sans-serif;font-size:16px;font-weight:400;text-anchor:start;dominant-baseline:auto"/>
<path d="M499,180 L511,180 L505,188 Z" fill="var(--text-primary)" style="fill:rgb(11, 11, 11);stroke:rgb(11, 11, 11);color:rgb(11, 11, 11);stroke-width:1.5px;stroke-linecap:round;stroke-linejoin:round;opacity:1;font-family:&quot;Anthropic Sans&quot;, -apple-system, BlinkMacSystemFont, &quot;Segoe UI&quot;, sans-serif;font-size:16px;font-weight:400;text-anchor:start;dominant-baseline:auto"/>

<path d="M165,246 Q150,280 165,318" style="fill:none;stroke:rgb(11, 11, 11);color:rgb(11, 11, 11);stroke-width:1.5px;stroke-linecap:round;stroke-linejoin:round;opacity:1;font-family:&quot;Anthropic Sans&quot;, -apple-system, BlinkMacSystemFont, &quot;Segoe UI&quot;, sans-serif;font-size:16px;font-weight:400;text-anchor:start;dominant-baseline:auto"/>
<path d="M159,310 L171,310 L165,318 Z" fill="var(--text-primary)" style="fill:rgb(11, 11, 11);stroke:rgb(11, 11, 11);color:rgb(11, 11, 11);stroke-width:1.5px;stroke-linecap:round;stroke-linejoin:round;opacity:1;font-family:&quot;Anthropic Sans&quot;, -apple-system, BlinkMacSystemFont, &quot;Segoe UI&quot;, sans-serif;font-size:16px;font-weight:400;text-anchor:start;dominant-baseline:auto"/>

</g>


<path d="M247,220 L253,228 L266,206" fill="none" stroke="#0F6E56" stroke-width="3" stroke-linecap="round" stroke-linejoin="round" style="fill:none;stroke:rgb(15, 110, 86);color:rgb(11, 11, 11);stroke-width:3px;stroke-linecap:round;stroke-linejoin:round;opacity:1;font-family:&quot;Anthropic Sans&quot;, -apple-system, BlinkMacSystemFont, &quot;Segoe UI&quot;, sans-serif;font-size:16px;font-weight:400;text-anchor:start;dominant-baseline:auto"/>


<circle cx="425" cy="218" r="13" fill="none" stroke="var(--text-secondary)" stroke-width="1.5" style="fill:none;stroke:rgb(82, 81, 78);color:rgb(11, 11, 11);stroke-width:1.5px;stroke-linecap:butt;stroke-linejoin:miter;opacity:1;font-family:&quot;Anthropic Sans&quot;, -apple-system, BlinkMacSystemFont, &quot;Segoe UI&quot;, sans-serif;font-size:16px;font-weight:400;text-anchor:start;dominant-baseline:auto"/>
<path d="M417,210 L433,226 M433,210 L417,226" stroke="var(--text-secondary)" stroke-width="1.5" stroke-linecap="round" style="fill:rgb(0, 0, 0);stroke:rgb(82, 81, 78);color:rgb(11, 11, 11);stroke-width:1.5px;stroke-linecap:round;stroke-linejoin:miter;opacity:1;font-family:&quot;Anthropic Sans&quot;, -apple-system, BlinkMacSystemFont, &quot;Segoe UI&quot;, sans-serif;font-size:16px;font-weight:400;text-anchor:start;dominant-baseline:auto"/>

<circle cx="595" cy="218" r="13" fill="none" stroke="var(--text-secondary)" stroke-width="1.5" style="fill:none;stroke:rgb(82, 81, 78);color:rgb(11, 11, 11);stroke-width:1.5px;stroke-linecap:butt;stroke-linejoin:miter;opacity:1;font-family:&quot;Anthropic Sans&quot;, -apple-system, BlinkMacSystemFont, &quot;Segoe UI&quot;, sans-serif;font-size:16px;font-weight:400;text-anchor:start;dominant-baseline:auto"/>
<path d="M587,210 L603,226 M603,210 L587,226" stroke="var(--text-secondary)" stroke-width="1.5" stroke-linecap="round" style="fill:rgb(0, 0, 0);stroke:rgb(82, 81, 78);color:rgb(11, 11, 11);stroke-width:1.5px;stroke-linecap:round;stroke-linejoin:miter;opacity:1;font-family:&quot;Anthropic Sans&quot;, -apple-system, BlinkMacSystemFont, &quot;Segoe UI&quot;, sans-serif;font-size:16px;font-weight:400;text-anchor:start;dominant-baseline:auto"/>


<text x="115" y="60" text-anchor="middle" dominant-baseline="central" style="fill:rgb(11, 11, 11);stroke:none;color:rgb(11, 11, 11);stroke-width:1px;stroke-linecap:butt;stroke-linejoin:miter;opacity:1;font-family:&quot;Anthropic Sans&quot;, -apple-system, BlinkMacSystemFont, &quot;Segoe UI&quot;, sans-serif;font-size:14px;font-weight:500;text-anchor:middle;dominant-baseline:central">Browser</text>
<text x="115" y="78" text-anchor="middle" dominant-baseline="central" style="fill:rgb(82, 81, 78);stroke:none;color:rgb(11, 11, 11);stroke-width:1px;stroke-linecap:butt;stroke-linejoin:miter;opacity:1;font-family:&quot;Anthropic Sans&quot;, -apple-system, BlinkMacSystemFont, &quot;Segoe UI&quot;, sans-serif;font-size:12px;font-weight:400;text-anchor:middle;dominant-baseline:central">→ shop.acme.com</text>

<text x="320" y="60" text-anchor="middle" dominant-baseline="central" style="fill:rgb(11, 11, 11);stroke:none;color:rgb(11, 11, 11);stroke-width:1px;stroke-linecap:butt;stroke-linejoin:miter;opacity:1;font-family:&quot;Anthropic Sans&quot;, -apple-system, BlinkMacSystemFont, &quot;Segoe UI&quot;, sans-serif;font-size:14px;font-weight:500;text-anchor:middle;dominant-baseline:central">ClientHello</text>
<text x="320" y="78" text-anchor="middle" dominant-baseline="central" style="fill:rgb(82, 81, 78);stroke:none;color:rgb(11, 11, 11);stroke-width:1px;stroke-linecap:butt;stroke-linejoin:miter;opacity:1;font-family:&quot;Anthropic Sans&quot;, -apple-system, BlinkMacSystemFont, &quot;Segoe UI&quot;, sans-serif;font-size:12px;font-weight:400;text-anchor:middle;dominant-baseline:central">SNI: shop.acme.com</text>

<text x="520" y="64" text-anchor="middle" dominant-baseline="central" style="fill:rgb(11, 11, 11);stroke:none;color:rgb(11, 11, 11);stroke-width:1px;stroke-linecap:butt;stroke-linejoin:miter;opacity:1;font-family:&quot;Anthropic Sans&quot;, -apple-system, BlinkMacSystemFont, &quot;Segoe UI&quot;, sans-serif;font-size:14px;font-weight:500;text-anchor:middle;dominant-baseline:central">Router</text>
<text x="520" y="80" text-anchor="middle" dominant-baseline="central" style="fill:rgb(82, 81, 78);stroke:none;color:rgb(11, 11, 11);stroke-width:1px;stroke-linecap:butt;stroke-linejoin:miter;opacity:1;font-family:&quot;Anthropic Sans&quot;, -apple-system, BlinkMacSystemFont, &quot;Segoe UI&quot;, sans-serif;font-size:12px;font-weight:400;text-anchor:middle;dominant-baseline:central">reads SNI</text>

<text x="165" y="212" text-anchor="middle" dominant-baseline="central" style="fill:rgb(11, 11, 11);stroke:none;color:rgb(11, 11, 11);stroke-width:1px;stroke-linecap:butt;stroke-linejoin:miter;opacity:1;font-family:&quot;Anthropic Sans&quot;, -apple-system, BlinkMacSystemFont, &quot;Segoe UI&quot;, sans-serif;font-size:14px;font-weight:500;text-anchor:middle;dominant-baseline:central">shop.acme.com</text>
<text x="165" y="230" text-anchor="middle" dominant-baseline="central" style="fill:rgb(82, 81, 78);stroke:none;color:rgb(11, 11, 11);stroke-width:1px;stroke-linecap:butt;stroke-linejoin:miter;opacity:1;font-family:&quot;Anthropic Sans&quot;, -apple-system, BlinkMacSystemFont, &quot;Segoe UI&quot;, sans-serif;font-size:12px;font-weight:400;text-anchor:middle;dominant-baseline:central">matched</text>

<text x="335" y="212" text-anchor="middle" dominant-baseline="central" style="fill:rgb(11, 11, 11);stroke:none;color:rgb(11, 11, 11);stroke-width:1px;stroke-linecap:butt;stroke-linejoin:miter;opacity:1;font-family:&quot;Anthropic Sans&quot;, -apple-system, BlinkMacSystemFont, &quot;Segoe UI&quot;, sans-serif;font-size:14px;font-weight:500;text-anchor:middle;dominant-baseline:central">blog.acme.com</text>
<text x="335" y="230" text-anchor="middle" dominant-baseline="central" style="fill:rgb(82, 81, 78);stroke:none;color:rgb(11, 11, 11);stroke-width:1px;stroke-linecap:butt;stroke-linejoin:miter;opacity:1;font-family:&quot;Anthropic Sans&quot;, -apple-system, BlinkMacSystemFont, &quot;Segoe UI&quot;, sans-serif;font-size:12px;font-weight:400;text-anchor:middle;dominant-baseline:central">not requested</text>

<text x="505" y="212" text-anchor="middle" dominant-baseline="central" style="fill:rgb(11, 11, 11);stroke:none;color:rgb(11, 11, 11);stroke-width:1px;stroke-linecap:butt;stroke-linejoin:miter;opacity:1;font-family:&quot;Anthropic Sans&quot;, -apple-system, BlinkMacSystemFont, &quot;Segoe UI&quot;, sans-serif;font-size:14px;font-weight:500;text-anchor:middle;dominant-baseline:central">api.acme.com</text>
<text x="505" y="230" text-anchor="middle" dominant-baseline="central" style="fill:rgb(82, 81, 78);stroke:none;color:rgb(11, 11, 11);stroke-width:1px;stroke-linecap:butt;stroke-linejoin:miter;opacity:1;font-family:&quot;Anthropic Sans&quot;, -apple-system, BlinkMacSystemFont, &quot;Segoe UI&quot;, sans-serif;font-size:12px;font-weight:400;text-anchor:middle;dominant-baseline:central">not requested</text>

<text x="165" y="343" text-anchor="middle" dominant-baseline="central" style="fill:rgb(11, 11, 11);stroke:none;color:rgb(11, 11, 11);stroke-width:1px;stroke-linecap:butt;stroke-linejoin:miter;opacity:1;font-family:&quot;Anthropic Sans&quot;, -apple-system, BlinkMacSystemFont, &quot;Segoe UI&quot;, sans-serif;font-size:14px;font-weight:500;text-anchor:middle;dominant-baseline:central">Handshake done</text>
<text x="165" y="361" text-anchor="middle" dominant-baseline="central" style="fill:rgb(82, 81, 78);stroke:none;color:rgb(11, 11, 11);stroke-width:1px;stroke-linecap:butt;stroke-linejoin:miter;opacity:1;font-family:&quot;Anthropic Sans&quot;, -apple-system, BlinkMacSystemFont, &quot;Segoe UI&quot;, sans-serif;font-size:12px;font-weight:400;text-anchor:middle;dominant-baseline:central">encrypted tunnel open</text>

</svg>